<svg width="216" height="59" viewBox="0 0 216 59" fill="none" xmlns="http://www.w3.org/2000/svg">
<path d="M196.596 58.5746C196.596 58.5474 196.586 58.5099 196.567 58.4963C196.325 58.3175 195.993 58.2068 195.949 57.8561C195.886 57.3606 195.856 56.8498 196.083 56.3867C197.165 54.1852 198.48 52.1557 200.29 50.4632C201.241 49.5745 202.158 48.6601 203.211 47.8837C203.341 47.7784 203.481 47.6855 203.628 47.6062C204.544 47.1635 204.697 46.2305 205.036 45.42C205.172 45.0948 205.279 44.7577 205.393 44.4223C205.418 44.344 205.457 44.235 205.383 44.1822C205.308 44.1294 205.223 44.2214 205.164 44.2656C204.688 44.6215 204.209 44.9756 203.751 45.3536C203.498 45.5805 203.176 45.7154 202.837 45.7367C202.498 45.758 202.162 45.6645 201.883 45.4711C201.514 45.2191 201.28 45.1697 200.939 45.5494C200.495 46.0432 199.886 46.3548 199.337 46.7294C198.987 46.9472 198.589 47.0747 198.177 47.1005C197.634 47.1652 197.211 46.6051 197.328 46.0091C197.523 44.966 197.714 43.9206 197.902 42.8729C197.919 42.7792 197.987 42.6549 197.902 42.5919C197.817 42.529 197.732 42.6532 197.659 42.7111C196.685 43.5727 195.684 44.4138 194.759 45.3213C194.219 45.8525 193.757 46.4689 193.23 47.0239C193.132 47.1481 192.991 47.2325 192.836 47.2619C192.68 47.2912 192.519 47.2636 192.381 47.184C192.028 47.0137 192.077 46.7038 192.145 46.4059C192.229 46.0483 192.327 45.6942 192.422 45.34C192.444 45.2583 192.516 45.1595 192.441 45.1067C192.403 45.0795 192.291 45.1561 192.212 45.1868C191.712 45.3826 191.385 45.8184 190.946 46.1028C190.508 46.3871 190.053 46.6272 189.488 46.5165C188.863 46.3939 188.708 46.2662 188.588 45.626C188.571 45.499 188.562 45.3711 188.56 45.243C188.56 45.1612 188.591 45.0523 188.506 45.008C188.394 44.9501 188.336 45.0557 188.265 45.1255C187.807 45.6105 187.284 46.0284 186.709 46.3667C186.056 46.7225 185.41 47.075 184.622 46.7583C184.554 46.7409 184.489 46.7096 184.433 46.6665C184.376 46.6233 184.329 46.5692 184.294 46.5072C184.259 46.4453 184.237 46.377 184.23 46.3063C184.222 46.2356 184.228 46.1641 184.249 46.096C184.3 45.7734 184.409 45.4626 184.57 45.1783C185.419 43.7242 186.647 42.6073 187.951 41.5908C188.317 41.285 188.716 41.0206 189.14 40.8025C189.238 40.7501 189.348 40.7221 189.459 40.7208C189.57 40.7195 189.681 40.7448 189.78 40.7948C189.88 40.8448 189.966 40.9179 190.032 41.0081C190.098 41.0983 190.141 41.2029 190.158 41.3133C190.196 41.4835 190.145 41.6759 189.989 41.71C189.396 41.8428 189.009 42.3059 188.511 42.5834C187.791 42.9853 187.265 43.605 186.684 44.155C186.268 44.5534 185.808 44.916 185.626 45.4966C185.599 45.5818 185.431 45.6499 185.555 45.7418C185.631 45.8014 185.735 45.6976 185.813 45.6414C186.558 45.1011 187.302 44.5596 188.044 44.0171C188.548 43.6775 189.011 43.2823 189.427 42.8388C189.483 42.7741 189.583 42.7231 189.596 42.6515C189.702 42.105 190.124 42.2804 190.435 42.311C190.783 42.34 190.87 42.6618 190.68 43.0414C190.321 43.6983 190.036 44.3933 189.831 45.1136C189.788 45.2838 189.771 45.4285 189.905 45.5392C190.04 45.6499 190.177 45.5477 190.318 45.466C191.113 45.0097 191.911 44.5585 192.724 44.1379C192.824 44.0861 192.912 44.0138 192.983 43.9259C193.053 43.8379 193.105 43.7362 193.134 43.6271C193.351 42.9461 193.757 42.3246 193.877 41.5959C193.934 41.2452 194.399 41.0425 194.772 41.1498C194.858 41.1768 194.936 41.2224 195.002 41.2835C195.068 41.3445 195.119 41.4194 195.153 41.5028C195.186 41.5861 195.201 41.6759 195.196 41.7656C195.19 41.8553 195.165 41.9427 195.122 42.0216C194.813 42.6311 194.783 43.336 194.404 43.92C194.355 43.9949 194.319 44.172 194.346 44.1873C194.477 44.2656 194.526 44.1124 194.609 44.0511C195.248 43.5778 195.691 42.8933 196.333 42.4234C196.867 42.0063 197.443 41.6446 198.05 41.3439C198.437 41.1737 198.709 41.3252 198.982 41.538C199.223 41.7236 199.251 41.9671 199.179 42.265C198.918 43.3837 198.67 44.504 198.627 45.6618C198.619 45.9308 198.619 46.0279 198.936 45.8814C199.476 45.6388 199.984 45.3287 200.446 44.9586C200.547 44.8605 200.674 44.7927 200.811 44.7628C200.971 44.7394 201.122 44.6705 201.244 44.5643C201.367 44.4581 201.456 44.3191 201.502 44.1635C201.791 43.3336 202.184 42.544 202.672 41.8138C202.939 41.4103 203.43 41.0817 203.921 41.5006C203.977 41.539 204.025 41.5883 204.063 41.6455C204.1 41.7027 204.126 41.7668 204.139 41.8341C204.151 41.9013 204.15 41.9704 204.136 42.0373C204.122 42.1043 204.095 42.1678 204.056 42.2242C203.676 42.7946 203.428 43.4262 203.136 44.0375C203.102 44.109 202.995 44.1873 203.066 44.2605C203.138 44.3337 203.263 44.2605 203.331 44.2095C203.792 43.8791 204.252 43.5471 204.69 43.1879C205.065 42.8865 205.413 42.5545 205.775 42.2378C205.924 42.1246 206.035 41.9692 206.094 41.7917C206.213 41.3286 206.573 41.3712 206.906 41.4052C206.988 41.4066 207.07 41.4249 207.145 41.4589C207.22 41.4929 207.288 41.5419 207.343 41.6029C207.399 41.664 207.442 41.7357 207.469 41.8139C207.496 41.892 207.506 41.9748 207.5 42.0573C207.5 42.546 207.315 43.004 207.203 43.4688C207.043 44.2167 206.825 44.951 206.551 45.6652C206.524 45.7316 206.49 45.8116 206.551 45.8644C206.644 45.9478 206.697 45.8355 206.76 45.7929C207.708 45.151 208.642 44.487 209.604 43.8706C210.567 43.2543 211.459 42.6345 212.459 42.1424C212.736 42.0084 213.019 41.8891 213.308 41.7849C213.334 41.7712 213.362 41.7629 213.391 41.7604C213.42 41.7579 213.449 41.7613 213.477 41.7704C213.504 41.7794 213.53 41.794 213.551 41.8132C213.573 41.8323 213.591 41.8557 213.604 41.8819C213.663 42.0267 213.51 42.0522 213.434 42.0863C211.343 43.3752 209.341 44.7952 207.388 46.2782C206.303 47.1039 205.374 48.0642 204.795 49.3923C204.121 50.9377 203.265 52.3974 202.248 53.7408C201.399 54.8697 200.616 56.0615 199.609 57.0661C198.93 57.7471 198.135 58.2579 197.15 58.3975C197.021 58.4146 196.893 58.4248 196.827 58.5678L196.596 58.5746ZM196.989 57.0116C197.028 57.1086 196.943 57.3078 197.119 57.3862C197.195 57.4084 197.275 57.4119 197.352 57.3961C197.429 57.3804 197.502 57.346 197.563 57.2959C197.868 57.1142 198.142 56.8842 198.374 56.6149C199.191 55.6205 200.044 54.6602 200.719 53.5501C201.591 52.1199 202.523 50.7271 203.309 49.2476C203.347 49.176 203.455 49.1062 203.375 49.0296C203.296 48.953 203.236 49.0756 203.175 49.1199C202.354 49.7183 201.582 50.3822 200.867 51.1051C199.587 52.432 198.469 53.9072 197.537 55.4996C197.269 55.9611 197.019 56.4225 196.989 57.0116Z" fill="black"/>
<path d="M73.9 41.24C72.9065 41.25 71.9147 41.3273 70.9316 41.4716C70.3789 41.5302 69.823 41.5529 69.2674 41.5397C66.946 41.5755 64.6483 41.8683 62.3524 42.1969C61.0285 42.3832 59.7151 42.6384 58.4177 42.9614C57.9659 43.0755 57.5193 43.2168 57.0744 43.3598C55.9587 43.7225 54.8345 44.0613 53.7375 44.4717C52.8884 44.7883 51.9968 44.836 51.1392 45.0676C50.6824 45.1902 50.2901 45.4524 49.8503 45.6158C49.1388 45.8848 48.4255 46.2203 47.6325 45.9359C46.9804 45.7027 46.8258 45.4643 46.9311 44.7713C46.9578 44.683 46.9535 44.5882 46.9188 44.5027C46.8842 44.4171 46.8214 44.3461 46.7409 44.3014C45.9886 43.8655 45.3501 43.2798 44.6725 42.7469C43.9525 42.1748 43.6349 42.2889 43.0864 43.004C42.7638 43.4262 42.6975 43.7719 42.8826 44.2435C43.0677 44.7151 42.9862 45.2344 42.9336 45.7299C42.8079 46.886 42.5804 48.0268 41.9656 49.0279C41.2421 50.2464 40.1558 51.2068 38.8596 51.7743C37.8184 52.2335 36.8342 52.8129 35.9269 53.5007C35.4273 53.8753 34.8838 54.187 34.3085 54.4287C33.6717 54.7028 33.0315 54.9667 32.6103 55.578C32.5609 55.6677 32.4804 55.7363 32.3841 55.7708C32.2878 55.8053 32.1822 55.8033 32.0873 55.7652C31.8716 55.6733 31.875 55.4775 31.8937 55.2902C32.0315 53.9262 32.1006 52.5561 32.1008 51.1852C32.1008 50.6573 32.2978 50.15 32.4405 49.6392C32.7563 48.4473 33.3354 47.3678 33.8907 46.2765C34.4966 45.0972 35.3009 44.0316 36.2682 43.1266C36.5727 42.8264 36.908 42.5593 37.2684 42.3297C38.4928 41.5874 39.7885 41.5584 41.1148 42.025C41.3344 42.1277 41.5296 42.2763 41.6871 42.4608C41.8569 42.6311 42.0845 42.7843 42.3392 42.6566C42.5939 42.5289 42.8928 42.3451 42.9828 42.0113C43.0029 41.9201 42.9952 41.8249 42.9607 41.738C42.9262 41.6512 42.8665 41.5768 42.7892 41.5244C41.3356 40.2486 39.9012 38.9523 38.486 37.6356C38.0377 37.2218 37.5435 36.8558 37.0969 36.4352C37.0576 36.3884 37.0088 36.3506 36.9537 36.3243C36.8985 36.298 36.8384 36.2839 36.7774 36.283C36.7164 36.282 36.6559 36.2942 36.6 36.3187C36.5441 36.3432 36.494 36.3794 36.4533 36.425C36.3116 36.565 36.1474 36.6801 35.9676 36.7655C35.3002 37.009 35.088 37.5045 35.0863 38.1702C35.0863 39.0215 34.8553 39.8337 34.7245 40.6646C34.5191 41.962 33.6717 42.7929 32.7224 43.5097C31.194 44.6658 29.5315 45.6397 27.9318 46.697C27.0051 47.3302 26.0113 47.8585 24.9685 48.2719C23.6678 48.7761 22.3076 49.1097 20.9217 49.2646C20.0454 49.3548 19.1623 49.4059 18.2946 49.5404C17.5168 49.6596 16.8171 50.0359 16.165 50.4786C15.9528 50.625 15.7388 50.7561 15.5129 50.5433C15.2871 50.3304 15.3431 50.0427 15.4994 49.8367C16.2941 48.7623 16.5505 47.4785 16.9139 46.239C17.414 44.4781 18.3197 42.8597 19.558 41.5142C20.5498 40.4364 21.606 39.4267 22.5978 38.3507C23.3144 37.5709 24.2348 37.026 24.9871 36.2939C25.689 35.6317 26.4625 35.0503 27.2933 34.5606C29.0305 33.4999 30.8425 33.5288 32.6646 34.4193C33.4509 34.8041 34.0232 35.4289 34.6634 35.9925C35.071 36.3518 35.4242 36.3433 35.842 35.9925C36.1188 35.7576 36.1103 35.4664 35.7859 35.3115C33.9519 34.3886 32.3607 33.0793 30.6625 31.9437C29.776 31.3545 28.8115 30.8438 28.0218 30.0946C27.672 29.7541 27.0589 29.9805 26.721 30.556C26.5002 30.934 26.2404 31.2898 26.113 31.7257C25.9843 32.1352 25.7823 32.5177 25.517 32.8546C25.3632 33.0424 25.252 33.2614 25.1909 33.4965C25.0211 34.3171 24.5269 34.9386 24.0022 35.5396C23.075 36.6174 22.1342 37.6901 20.9166 38.4579C20.1626 38.9347 19.3559 39.3229 18.5867 39.7758C17.2281 40.5726 15.766 41.1158 14.3072 41.6606C12.66 42.2753 10.9856 42.7963 9.1804 42.8524C7.92713 42.8882 6.67896 43.1691 5.4308 43.3632C4.7719 43.4654 4.10791 43.542 3.44731 43.6323C2.50677 43.782 1.58386 44.0273 0.692851 44.3644C0.475483 44.441 0.244529 44.5432 0.0747105 44.2963C-0.0951083 44.0494 0.0560307 43.8485 0.21566 43.685C1.36364 42.4932 1.91385 40.9813 2.31972 39.4438C2.64067 38.2366 3.20277 37.1673 3.74789 36.0742C4.36613 34.8354 5.1915 33.7118 6.18819 32.7524C7.66391 31.3256 9.267 30.0622 11.1299 29.1615C12.2286 28.6303 13.3121 28.065 14.4193 27.5509C15.0533 27.2294 15.7272 26.994 16.4232 26.8511C17.1126 26.7336 17.724 26.3147 18.4253 26.2586C19.3152 26.1853 20.1898 25.981 21.0949 26.0321C22.1947 26.0897 23.2464 26.5031 24.0922 27.2103C24.3243 27.3746 24.573 27.5138 24.8343 27.6258C24.9141 27.6666 25.0398 27.7296 25.106 27.6258C25.1722 27.5219 25.0856 27.4368 25.0126 27.3653C24.7477 27.1082 24.4675 26.8647 24.2128 26.5957C23.1577 25.4447 21.7606 24.6655 20.2288 24.3737C19.3368 24.186 18.4822 23.8506 17.7002 23.3811C16.829 22.8703 15.8696 22.6081 14.9695 22.1892C13.0964 21.3024 11.4828 19.9467 10.2842 18.2528C9.92889 17.718 9.54037 17.2062 9.12096 16.7204C8.45866 16.0189 8.15639 15.1454 7.83203 14.2839C7.34787 12.9593 6.9335 11.6101 6.59066 10.2418C6.16744 8.56767 5.9524 6.84743 5.95044 5.12032C5.93855 3.70883 5.97931 2.29394 5.8027 0.889267C5.78062 0.719003 5.73987 0.511282 5.94195 0.439771C6.14403 0.36826 6.32234 0.538524 6.43612 0.69687C6.76218 1.14296 7.02709 1.63332 7.49579 1.96704C7.89826 2.25138 8.30074 2.49996 8.81019 2.5221C9.23474 2.54083 9.61173 2.73493 9.97515 2.92051C11.4033 3.65094 12.8757 4.31497 14.1968 5.23099C15.7481 6.31349 17.1874 7.54895 18.4933 8.9189C19.2625 9.72254 19.9826 10.5585 20.6686 11.4354C21.2938 12.2377 21.7031 13.1874 21.8574 14.1937C22.0561 15.4281 22.5044 16.5893 22.7625 17.8016C23.0138 18.9764 23.272 20.1512 23.2074 21.3601C23.1191 23.1121 23.4706 24.6717 24.7715 25.9725C25.6206 26.8238 26.4917 27.6275 27.3493 28.4584C27.5191 28.6286 27.7518 28.8432 27.9556 28.5452C28.1424 28.2728 27.9284 28.0565 27.7059 27.9101C27.3255 27.6598 26.9384 27.4232 26.5461 27.1967C26.1504 26.9802 25.8088 26.6767 25.5468 26.309C25.2847 25.9413 25.1091 25.5189 25.033 25.0735C24.7545 23.2755 24.4148 21.4724 24.493 19.6353C24.5164 19.0366 24.6076 18.4426 24.7647 17.8646C24.9192 17.3044 24.9498 16.7102 25.0517 16.1347C25.3785 14.1666 26.3317 12.3574 27.7688 10.9774C28.4599 10.2963 29.0067 9.49439 29.6147 8.74353C30.0621 8.20669 30.4075 7.59207 30.6336 6.93022C30.6823 6.796 30.7561 6.67234 30.851 6.56586C30.8957 6.49971 30.9604 6.44964 31.0356 6.42299C31.1107 6.39634 31.1924 6.3945 31.2687 6.41773C31.336 6.44263 31.395 6.48601 31.4388 6.54292C31.4826 6.59983 31.5096 6.66796 31.5167 6.73952C31.5167 6.76847 31.5269 6.79741 31.5286 6.82466C31.5846 8.15271 32.1976 9.28497 32.7903 10.4223C33.503 11.8088 33.8888 13.3408 33.9179 14.9003C33.9332 15.4315 34.0673 15.944 34.1251 16.4684C34.2355 17.4815 34.0368 18.4639 33.9145 19.448C33.7277 20.9616 33.5936 22.4974 32.9975 23.9225C32.4201 25.3017 31.6848 26.5616 30.3449 27.3755C29.7319 27.7467 29.1341 28.1808 28.7894 28.8619C28.5313 29.3727 28.5941 29.5719 29.0967 29.863C29.6894 30.2036 30.1836 30.6769 30.7032 31.1196C31.4487 31.7581 32.3369 32.2025 33.1215 32.7865C33.9892 33.4301 34.9368 33.9528 35.8029 34.5981C35.8424 34.6401 35.8914 34.6719 35.9458 34.6909C36.0002 34.7098 36.0584 34.7154 36.1154 34.707C36.5365 34.5759 36.6707 34.1962 36.7946 33.8404C36.8174 33.7748 36.827 33.7053 36.8229 33.6359C36.8189 33.5666 36.8012 33.4987 36.7709 33.4362C36.7406 33.3738 36.6983 33.3179 36.6464 33.2718C36.5945 33.2258 36.5341 33.1904 36.4686 33.1678C35.4497 32.7405 34.7704 31.9981 34.1947 31.0736C33.5485 30.1112 33.26 28.9517 33.3796 27.7977C33.4295 27.4149 33.5189 27.0383 33.6462 26.674C34.1845 25.0207 34.7687 23.3811 35.5753 21.8351C35.8963 21.217 36.3412 20.662 36.6469 20.0388C37.6658 17.965 39.2315 16.4326 41.1437 15.1982C41.823 14.7555 42.5838 14.3963 43.1323 13.751C43.2932 13.553 43.4428 13.3461 43.5806 13.1312C43.6378 13.039 43.7236 12.9681 43.8248 12.9294C43.926 12.8906 44.037 12.8862 44.141 12.9167C44.3499 12.9729 44.377 13.1704 44.3499 13.3372C44.0476 15.1897 44.6488 17.0064 44.5757 18.8385C44.484 21.1626 44.7201 23.5394 43.8149 25.7767C43.4057 26.7847 43.3055 27.8744 42.9047 28.8925C42.3195 30.4649 41.2614 31.816 39.8769 32.7592C39.4234 33.0674 38.8732 33.1491 38.3587 33.3092C37.9239 33.4437 37.5877 33.6599 37.4213 34.1009C37.373 34.2216 37.3103 34.3359 37.2345 34.4414C36.8184 35.0544 36.8201 35.2195 37.355 35.715C38.126 36.4301 38.9479 37.0941 39.69 37.8382C40.855 39.0079 42.2136 39.9631 43.3089 41.206C43.4787 41.3916 43.6893 41.5636 43.9372 41.3541C44.1852 41.1447 44.0714 40.8961 43.9372 40.6918C43.7576 40.4337 43.5333 40.2099 43.2749 40.0312C42.582 39.4988 42.086 38.7498 41.8654 37.9029C41.215 35.7082 41.6107 33.6463 42.5447 31.6321C42.8623 30.951 43.01 30.2019 43.4346 29.56C44.1027 28.5709 44.8654 27.6493 45.7118 26.8085C46.1751 26.3431 46.5947 25.8358 46.9651 25.2932C47.3384 24.7574 47.6282 24.1678 47.8244 23.5445C47.8855 23.3419 47.9942 23.1291 48.2795 23.1904C48.5648 23.2517 48.6004 23.4645 48.5835 23.6893C48.4918 24.8317 48.8178 25.8874 49.188 26.9464C49.5699 27.9821 49.7671 29.0772 49.7705 30.1814C49.7501 31.9062 49.6924 33.6361 49.3765 35.3319C49.1524 36.5459 48.9622 37.7888 48.4001 38.9074C47.7768 40.1521 46.8581 41.0187 45.379 41.0987C45.2221 41.1047 45.068 41.1417 44.9256 41.2077C44.8069 41.2584 44.7027 41.3381 44.6226 41.4395C44.5425 41.5409 44.4891 41.6608 44.467 41.7883C44.4382 42.0352 44.6708 42.1612 44.8525 42.2565C45.7016 42.706 46.5609 43.1487 47.427 43.5658C47.9483 43.8178 48.4459 43.496 48.9554 43.4228C49.0963 43.4024 49.1642 43.2185 49.1371 43.0687C48.9672 42.1731 49.4292 41.3967 49.6346 40.5777C49.9097 39.4744 50.2024 38.3751 50.5126 37.2797C50.7419 36.4744 51.0798 35.7014 51.3532 34.9096C51.9051 33.3126 52.6727 31.804 53.1974 30.1916C53.5371 29.1428 53.9565 28.1127 54.3573 27.0809C54.7581 26.0491 55.1945 25.0378 55.4917 23.9685C55.687 23.2619 56.0266 22.5962 56.3 21.9117C56.5649 21.2522 56.8287 20.5927 57.0914 19.9333C57.414 19.116 57.7435 18.3004 58.0526 17.4781C58.4329 16.4718 58.7947 15.457 59.1666 14.4474C59.3924 13.8327 59.7677 13.2896 59.9953 12.6715C60.3307 11.7832 60.728 10.9195 61.184 10.0869C61.5508 9.40585 62.0857 8.88485 62.6495 8.38427C62.945 8.12377 63.5496 8.23274 63.8383 8.61754C64.1779 9.07895 64.4021 9.48077 64.1032 10.1499C63.5377 11.4201 62.9297 12.6681 62.332 13.9229C62.0416 14.5308 61.8514 15.1863 61.6001 15.8146C61.4472 16.1943 61.2757 16.5671 61.0906 16.9315C61.0152 17.0685 60.9624 17.2168 60.9344 17.3708C60.7866 18.2749 60.3417 19.0734 60.0581 19.9247C59.8102 20.6773 59.5317 21.4214 59.2498 22.1637C58.8065 23.33 58.5213 24.5474 58.061 25.7052C57.7791 26.4016 57.5516 27.1235 57.341 27.8454C57.0113 28.8987 56.5973 29.9237 56.103 30.9102C55.7141 31.7308 55.2658 32.5583 55.1928 33.5135C55.1639 33.883 54.882 34.1945 54.7903 34.5759C54.6002 35.3355 54.3619 36.0822 54.0771 36.8115C53.7476 37.6781 53.5676 38.589 53.2467 39.4557C52.9631 40.2151 52.7168 40.9881 52.4519 41.7559C52.4078 41.8871 52.3025 42.0284 52.4214 42.1561C52.5402 42.2838 52.7372 42.2412 52.9019 42.1867C53.8672 41.8985 54.8481 41.666 55.8398 41.4903C56.7857 41.2928 57.7367 41.1413 58.6843 40.9574C60.1209 40.6799 61.5712 40.4688 63.0215 40.2917C64.9387 40.055 66.856 39.8218 68.7953 39.7349C70.4001 39.6617 72.01 39.4966 73.6114 39.6242C75.0667 39.74 76.539 39.7485 77.9706 40.1095C78.2084 40.1691 78.4206 40.2525 78.4359 40.5301C78.4512 40.8076 78.2287 40.8587 78.0164 40.9302C77.0247 41.2605 76.0024 41.2588 74.975 41.2349C74.6133 41.2298 74.2567 41.24 73.9 41.24ZM26.8365 29.1156C26.8298 29.0767 26.8178 29.0388 26.8008 29.0032C26.5563 28.6167 26.1215 28.4618 25.7819 28.1944C25.7666 28.1842 25.6936 28.2149 25.6851 28.2387C25.6813 28.2589 25.6817 28.2796 25.6864 28.2995C25.6911 28.3194 25.6999 28.3382 25.7123 28.3545C25.9415 28.6576 26.1725 28.9589 26.4102 29.2569C26.4457 29.302 26.4953 29.334 26.551 29.3475C26.6067 29.3611 26.6654 29.3556 26.7176 29.3318C26.7596 29.3155 26.7945 29.2849 26.8162 29.2453C26.8379 29.2058 26.8451 29.1599 26.8365 29.1156Z" fill="black"/>
<path d="M176.12 36.3331C175.334 36.5033 174.647 36.0913 174.133 35.5294C173.55 34.8926 173.192 34.123 173.437 33.1559C173.607 32.4749 173.649 31.7479 173.887 31.0736C174.124 30.3994 174.344 29.7115 174.746 29.0951C175.108 28.5384 175.393 27.9288 175.841 27.4266C175.874 27.3979 175.896 27.3594 175.904 27.3171C175.913 27.2747 175.907 27.2306 175.889 27.1916C175.841 27.098 175.751 27.115 175.665 27.1201C174.695 27.1797 173.756 27.43 172.802 27.5849C172.567 27.6241 172.426 27.8182 172.209 27.9033C171.142 28.3239 169.991 28.3528 168.894 28.6422C168.045 28.867 167.208 29.1343 166.347 29.3437C166.238 29.3765 166.141 29.4383 166.065 29.5225C165.961 29.6213 165.863 29.7677 165.741 29.7932C164.881 29.9805 164.82 30.7314 164.606 31.3716C164.503 31.665 164.37 31.9474 164.21 32.2144C163.894 32.7914 163.708 33.4305 163.664 34.0873C163.619 34.458 163.484 34.8118 163.27 35.1174C162.682 36.0044 162.482 37.0243 162.23 38.0255C162.015 38.8887 161.911 39.0181 161.123 39.0181C160.852 39.0215 160.582 39.0471 160.315 39.0947C159.975 39.1543 159.795 39.0096 159.87 38.681C160.011 38.0459 160.193 37.421 160.364 36.7911C160.519 36.219 160.671 35.6435 160.843 35.0765C160.97 34.656 161.11 34.2371 161.242 33.82C161.527 32.9278 161.775 32.0254 162.047 31.1298C162.115 30.9085 162.307 30.6343 162.108 30.4487C161.909 30.2632 161.626 30.4215 161.385 30.5032C160.85 30.6735 160.32 30.8948 159.771 31.014C159.127 31.183 158.495 31.3969 157.88 31.6542C157.438 31.8033 156.988 31.9289 156.533 32.0305C155.533 32.2961 154.549 32.6196 153.551 32.8818C152.311 33.2223 151.078 33.5816 149.839 33.9255C149.46 34.0294 149.29 34.3342 149.188 34.7019C148.908 35.7133 148.648 36.7298 148.319 37.7275C148.008 38.6708 147.82 39.6583 147.47 40.5811C147.055 41.6504 146.981 42.7946 146.602 43.8757C146.399 44.4201 146.243 44.9805 146.133 45.5511C146.036 46.1849 145.816 46.7938 145.488 47.344C145.35 47.5653 143.881 47.8463 143.695 47.6845C143.47 47.487 143.493 47.2333 143.547 46.9711C143.749 45.9666 143.934 44.962 144.09 43.9489C144.272 42.7656 144.486 41.5874 144.686 40.4092C144.805 39.7077 145.001 39.0249 145.113 38.3234C145.241 37.6097 145.411 36.9042 145.622 36.2105C145.749 35.7576 145.741 35.2791 145.946 34.8398C146.047 34.6236 145.824 34.593 145.656 34.6304C145.166 34.7167 144.684 34.8373 144.211 34.9914C143.33 35.3319 142.402 35.5549 141.572 36.013C140.942 36.3637 140.29 36.6736 139.621 36.9409C138.928 37.2133 138.242 37.5147 137.528 37.7445C136.983 37.9148 136.477 38.2145 135.936 38.4035C135.301 38.6434 134.633 38.7852 133.956 38.824C133.274 38.8343 132.604 38.6539 132.02 38.303C131.41 37.9625 130.941 37.0345 131.68 36.4114C131.954 36.1907 132.266 36.0212 132.6 35.9108C133.67 35.5396 134.679 35.0254 135.732 34.627C136.482 34.3427 137.24 34.0549 137.977 33.7467C138.76 33.4215 139.56 33.144 140.354 32.8682C141.203 32.5719 142.061 32.2586 142.942 32.0407C143.632 31.8704 144.301 31.6406 144.98 31.4482C145.556 31.2864 146.132 31.1298 146.712 30.9936C146.814 30.9816 146.909 30.9384 146.985 30.8698C147.061 30.8011 147.114 30.7106 147.137 30.6105C147.646 29.0781 148.113 27.5287 148.643 26.0015C148.922 25.1995 149.168 24.3788 149.477 23.5905C149.869 22.586 150.221 21.5678 150.64 20.5734C151.06 19.5791 151.435 18.578 151.829 17.5802C152.338 16.3186 152.614 14.9752 153.169 13.734C153.476 13.0529 153.692 12.3276 153.977 11.6329C154.055 11.4024 154.096 11.1611 154.099 10.9178C154.157 10.1108 154.386 9.75149 155.139 9.58463C155.57 9.48758 156.023 9.37181 156.487 9.4978C157.803 9.85536 158.394 10.6266 158.467 11.7793C158.501 12.3242 158.182 12.8009 157.841 13.1925C157.253 13.8736 157.003 14.7249 156.599 15.5064C156.146 16.3747 155.779 17.284 155.41 18.1898C155.106 18.9372 154.835 19.7 154.521 20.4423C154.279 21.0161 153.981 21.5661 153.731 22.1365C153.305 23.1104 152.882 24.0843 152.461 25.0633C151.895 26.3982 151.476 27.7875 150.92 29.1207C150.876 29.1944 150.852 29.2789 150.852 29.365C150.852 29.4512 150.876 29.5357 150.92 29.6093C151.029 29.7524 151.182 29.6502 151.318 29.6315C152.318 29.4987 153.276 29.2041 154.247 28.9504C154.818 28.7955 155.409 28.6865 155.988 28.5452C156.922 28.317 157.856 28.0753 158.8 27.9271C160.091 27.7228 161.366 27.3789 162.685 27.3704C162.88 27.3769 163.071 27.3132 163.223 27.1907C163.375 27.0683 163.479 26.8952 163.514 26.7029C163.726 25.9333 164.024 25.1961 164.306 24.4521C164.698 23.4015 165.099 22.3561 165.494 21.3073C165.909 20.2091 166.343 19.1126 166.826 18.0416C167.091 17.4627 167.232 16.8328 167.505 16.2505C167.824 15.5694 168.081 14.8645 168.364 14.1698C168.648 13.4752 168.918 12.8077 169.198 12.1267C169.735 10.831 170.156 9.4944 170.796 8.23445C171.158 7.52274 171.45 6.75996 171.791 6.02102C171.831 5.94446 171.849 5.85854 171.844 5.77243C171.705 4.7849 172.255 4.05277 172.761 3.31553C173.031 2.92222 173.37 2.57829 173.668 2.202C173.699 2.16457 173.74 2.13564 173.786 2.11781C173.831 2.09997 173.881 2.0938 173.929 2.09985C174.128 2.11727 174.328 2.11327 174.525 2.08793C175.091 1.94661 175.374 2.36716 175.612 2.70428C175.882 3.09078 176.048 3.56411 175.857 4.08172C175.425 5.24972 174.972 6.40581 174.432 7.53126C174.016 8.3979 173.705 9.31392 173.326 10.1993C173.114 10.7104 172.872 11.209 172.603 11.6925C172.228 12.348 172.032 13.0801 171.681 13.7493C171.042 14.965 170.596 16.2811 169.952 17.4951C169.385 18.5541 169.06 19.6881 168.609 20.7812C168.378 21.3413 168.142 21.9049 167.885 22.4549C167.571 23.1533 167.294 23.8683 167.057 24.5968C166.853 25.1859 166.651 25.775 166.399 26.3471C166.248 26.6876 166.33 26.8017 166.712 26.7915C167.391 26.7745 168.001 26.451 168.677 26.4322C169.803 26.3965 170.884 26.0832 172.014 25.981C173.442 25.8516 174.865 25.6592 176.305 25.7052C176.375 25.7052 176.475 25.7052 176.509 25.7444C176.848 26.1087 177.066 25.8652 177.305 25.6167C178.005 24.8879 178.575 24.7653 179.474 25.1978C179.701 25.3171 179.958 25.3685 180.214 25.3459C180.769 25.2812 181.233 25.552 181.712 25.758C181.843 25.817 181.949 25.9199 182.013 26.0491C182.17 26.4373 182.452 26.468 182.78 26.3488C183.611 26.0491 184.49 26.0832 185.344 25.9419C186.364 25.7571 187.4 25.6789 188.435 25.7086C188.647 25.7188 188.72 25.5809 188.802 25.4175C189.028 24.9646 189.043 24.4521 189.228 23.9838C189.442 23.4441 189.585 22.8771 189.772 22.3255C189.884 21.9935 189.739 21.9117 189.442 21.9356C189.074 21.9645 188.763 22.179 188.457 22.3289C187.747 22.6694 186.947 22.7733 186.289 23.2449C186.041 23.4151 185.665 23.5343 185.416 23.2994C185.275 23.1847 185.177 23.0262 185.137 22.8491C185.096 22.672 185.116 22.4865 185.193 22.3221C185.224 22.2738 185.245 22.22 185.256 22.1637C185.295 21.2102 186.008 21.0127 186.735 20.8527C187.858 20.6075 188.985 20.3794 190.111 20.1529C190.244 20.1353 190.368 20.0766 190.467 19.9851C190.565 19.8936 190.632 19.7737 190.66 19.6421C190.999 18.5286 191.497 17.4712 191.925 16.3901C192.144 15.8367 192.348 15.2782 192.585 14.7317C192.951 13.9008 193.362 13.0853 193.669 12.2322C193.976 11.3792 194.348 10.4955 194.661 9.61699C194.941 8.82866 195.644 8.70778 196.311 8.61413C196.918 8.5307 197.403 8.87464 197.768 9.33946C197.838 9.44183 197.875 9.56287 197.875 9.68679C197.875 9.81072 197.838 9.93176 197.768 10.0341C197.383 10.6896 197.206 11.4286 196.919 12.125C196.493 13.1772 196.053 14.2175 195.561 15.2442C195.196 16.0104 194.864 16.7953 194.494 17.5615C194.307 17.9429 194.124 18.326 193.924 18.7005C193.789 18.9474 193.856 19.0564 194.124 19.0309C194.589 18.9866 195.063 19.0019 195.511 18.818C195.675 18.762 195.848 18.7372 196.021 18.7448C197.143 18.7448 198.262 18.6478 199.383 18.5746C199.611 18.5736 199.838 18.5929 200.063 18.6324C200.378 18.6699 200.657 18.7601 200.669 19.1535C200.681 19.494 200.412 19.7238 200.076 19.8788C199.27 20.2465 198.402 20.1427 197.568 20.2874C196.209 20.5224 194.839 20.6535 193.492 20.931C193.112 21.0093 192.935 21.2715 192.827 21.6274C192.29 23.3777 191.777 25.1348 191.19 26.8698C190.892 27.7518 190.629 28.6525 190.398 29.56C190.188 30.4716 189.904 31.3645 189.549 32.2297C189.345 32.6517 189.198 33.0988 189.111 33.5595C189.046 34.0141 188.742 34.3852 188.642 34.8381C188.569 35.1787 188.43 35.4954 188.454 35.841C188.489 36.3245 188.252 36.7161 188.06 37.1214C187.948 37.3597 186.452 37.6594 186.266 37.4874C186.081 37.3155 186.126 37.0924 186.151 36.8813C186.321 35.5379 186.426 34.1809 186.745 32.8682C187.024 31.724 187.139 30.5407 187.576 29.4323C187.746 29.0117 187.803 28.5554 188 28.1366C188.143 27.8369 187.975 27.6905 187.661 27.7637C187.481 27.8061 187.298 27.8335 187.114 27.8454C185.94 27.9152 184.837 28.3102 183.707 28.5878C183.485 28.6422 183.383 28.7495 183.412 28.9743C183.507 29.6996 183.094 30.2802 182.874 30.9187C182.62 31.6559 182.091 32.228 181.739 32.9073C181.549 33.2717 181.192 33.5526 180.905 33.8642C180.231 34.6125 179.457 35.2645 178.606 35.8018C177.86 36.2496 177.047 36.3773 176.12 36.3331ZM180.761 27.8386C180.761 27.59 180.783 27.2648 180.53 27.2001C180.114 27.0946 179.74 26.7574 179.275 26.9056C179.183 26.9345 179.129 27.0758 179.051 27.1541C178.779 27.4351 178.684 27.8199 178.467 28.1366C177.46 29.6025 176.519 31.1026 176.108 32.8682C176.026 33.2087 175.906 33.5578 175.923 33.917C175.94 34.2763 176.093 34.375 176.375 34.2456C177.405 33.772 178.302 33.0502 178.986 32.1446C179.448 31.5367 179.751 30.8267 180.097 30.144C180.465 29.4258 180.691 28.6429 180.761 27.8386Z" fill="black"/>
<path d="M107.485 55.1914C107.259 53.9996 107.923 53.0853 108.402 52.1097C108.826 51.243 109.336 50.424 109.84 49.6034C110.403 48.6349 111.019 47.6987 111.686 46.7991C111.912 46.5097 112.1 46.1896 112.335 45.9069C113.756 44.1856 115.341 42.6226 116.95 41.08C118.119 39.9596 119.328 38.8768 120.579 37.8654C121.303 37.2848 122.13 36.8438 122.899 36.3143C123.351 36.0044 123.424 35.5243 123.611 35.1054C124.044 34.1349 124.419 33.1389 124.799 32.1479C124.949 31.7649 125.013 31.3562 125.261 31.0072C125.348 30.8846 125.394 30.636 125.241 30.5321C125.088 30.4283 124.928 30.6173 124.823 30.7314C123.88 31.7133 122.82 32.5756 121.668 33.2989C121.496 33.4254 121.299 33.5125 121.09 33.554C120.881 33.5955 120.666 33.5904 120.459 33.539C119.927 33.4079 119.375 33.4539 118.83 33.2547C117.73 32.8528 117.686 32.0322 117.811 31.186C117.923 30.5676 118.153 29.977 118.491 29.4476C118.628 29.1672 118.742 28.8756 118.83 28.5758C119.207 27.5968 119.791 26.7336 120.398 25.9112C120.972 25.1331 121.897 25.0054 122.665 25.8039C123.004 26.1444 122.991 26.7523 122.743 27.1899C122.233 28.0838 121.593 28.8925 121.25 29.8834C121.145 30.1175 121.026 30.3449 120.894 30.5645C120.846 30.6615 120.773 30.7841 120.894 30.8761C120.943 30.907 121 30.9217 121.058 30.918C121.116 30.9143 121.171 30.8925 121.216 30.8556C122.028 30.3363 122.862 29.8341 123.561 29.1683C124.39 28.3749 125.278 27.6513 126.126 26.88C126.341 26.7108 126.488 26.4687 126.538 26.1989C126.637 25.5792 127.192 25.3187 127.914 25.3732C128.636 25.4276 129.07 25.7392 129.133 26.3862C129.226 27.1658 129.115 27.9562 128.811 28.6797C128.568 29.2432 128.559 29.9022 128.393 30.5049C128.126 31.4754 127.916 32.4646 127.501 33.3892C127.445 33.5152 127.384 33.648 127.501 33.7297C127.618 33.8114 127.685 33.6463 127.771 33.5918C128.437 33.1729 129.062 32.6928 129.751 32.3012C130.356 31.9333 130.939 31.5302 131.497 31.094C132.409 30.4249 133.397 29.8766 134.338 29.2552C134.837 28.9097 135.353 28.5897 135.884 28.2966C136.816 27.8062 137.668 27.1814 138.638 26.7455C139.063 26.5531 139.506 26.405 139.923 26.2023C140.163 26.0815 140.433 26.0065 140.574 26.3386C140.691 26.6195 140.537 26.7557 140.278 26.8902C139.261 27.4434 138.284 28.0694 137.356 28.7631C136.775 29.1837 136.167 29.5582 135.578 29.972C134.899 30.4538 134.238 30.9561 133.569 31.4499C132.614 32.1525 131.633 32.8171 130.624 33.4437C130.407 33.5982 130.201 33.7689 130.009 33.9544C129.084 34.7377 128.006 35.3506 127.223 36.2922C126.77 36.8352 126.262 37.3299 125.708 37.7683C125.122 38.2349 125.017 38.9602 124.715 39.58C123.901 41.2502 123.027 42.8848 122.128 44.5176C121.464 45.72 120.731 46.8831 119.934 48.0012C119.031 49.2697 118.086 50.5126 117.152 51.7606C116.279 52.9291 115.326 54.0361 114.301 55.0739C113.782 55.6001 113.129 55.9559 112.513 56.3577C111.943 56.7294 111.327 57.0243 110.681 57.2346C109.973 57.4627 109.234 57.7454 108.458 57.3912C107.974 57.1699 107.49 56.4991 107.485 55.9593C107.483 55.7022 107.485 55.4519 107.485 55.1914ZM109.568 54.7368C109.59 54.8764 109.606 55.0178 109.635 55.1574C109.635 55.2089 109.651 55.2592 109.678 55.3026C109.706 55.346 109.745 55.3808 109.792 55.4031C109.838 55.4253 109.89 55.4342 109.941 55.4287C109.992 55.4232 110.041 55.4035 110.081 55.3719C110.603 55.0961 111.153 54.8611 111.559 54.4065C113.002 52.806 114.43 51.1919 115.619 49.3871C116.609 47.8871 117.611 46.3922 118.54 44.853C119.425 43.3888 120.337 41.9364 121.131 40.4262C121.187 40.3172 121.315 40.1895 121.175 40.0856C121.036 39.9818 120.936 40.118 120.846 40.2065C120.596 40.4534 120.369 40.7173 120.101 40.9489C119.577 41.3813 119.054 41.8155 118.525 42.2293C117.241 43.2338 116.166 44.4188 115.128 45.6618C114.247 46.7191 113.41 47.8088 112.606 48.924C111.655 50.2453 110.71 51.5767 110.059 53.0819C109.838 53.6046 109.514 54.1188 109.568 54.7402V54.7368Z" fill="black"/>
<path d="M200.702 24.1881C201.573 24.1115 202.259 24.4078 202.724 25.1671C202.967 25.5639 202.949 25.884 202.655 26.2551C202.361 26.6263 202.072 27.0264 201.767 27.4027C201.162 28.1434 200.384 28.7035 199.657 29.3063C198.978 29.8613 198.318 30.4453 197.502 30.8063C197.131 30.9765 196.742 31.123 196.346 31.0515C195.626 30.9238 195.212 31.2983 194.933 31.8585C194.711 32.3114 194.466 32.766 194.503 33.3143C194.548 33.951 194.843 34.2235 195.461 34.1468C196.056 34.0557 196.631 33.861 197.159 33.5714C197.594 33.35 198.078 33.3143 198.53 33.1406C199.27 32.8563 199.963 32.4834 200.683 32.1616C201.023 32.0117 201.362 31.8721 201.702 31.7155C203.001 31.0974 204.26 30.3976 205.552 29.7745C206.145 29.4884 206.25 29.0066 206.421 28.5316C206.683 27.8096 206.851 27.0554 207.101 26.3283C207.401 25.4294 207.743 24.544 208.065 23.6535C208.291 23.0252 208.507 22.3918 208.744 21.7653C209.171 20.6228 209.624 19.4923 210.091 18.36C210.271 17.9241 210.431 17.4695 210.589 17.0166C210.809 16.3662 211.098 15.7328 211.314 15.0756C211.603 14.1732 212.039 13.3219 212.217 12.3786C212.312 12.0088 212.436 11.6468 212.586 11.2958C212.863 10.5386 213.075 9.75872 213.217 8.96486C213.277 8.61411 213.594 8.56474 213.829 8.43193C214.556 8.01819 215.164 8.26167 215.614 8.95464C215.986 9.52162 216.11 10.0784 215.896 10.676C215.773 11.0165 215.556 11.3264 215.459 11.6891C215.164 12.9065 214.661 14.054 214.23 15.2203C213.905 16.1006 213.657 17.0251 213.056 17.8135C212.627 18.377 212.499 19.1415 212.28 19.8277C212.032 20.599 211.684 21.3294 211.431 22.0973C211.178 22.8652 210.796 23.6041 210.536 24.3839C210.308 25.0839 210.042 25.7706 209.738 26.4407C209.568 26.8119 209.456 27.2137 209.315 27.5985C208.838 28.9044 208.405 30.2274 207.98 31.552C207.834 32.01 207.792 32.4953 207.63 32.955C207.213 34.2129 206.929 35.5112 206.781 36.8285C206.7 37.4483 206.046 37.627 205.542 37.2508C204.587 36.5391 204.693 35.5873 204.934 34.627C205.136 33.8387 205.246 33.0316 205.457 32.2433C205.494 32.1054 205.564 31.9028 205.396 31.8125C205.228 31.7223 205.104 31.8381 204.964 31.9164C204.178 32.3557 203.4 32.8069 202.578 33.1815C202.003 33.4454 201.456 33.7723 200.88 34.0549C200.276 34.3563 199.649 34.6134 199.055 34.9335C198.645 35.1568 198.212 35.3344 197.764 35.463C196.575 35.8035 195.349 36.1679 194.123 35.8393C192.664 35.4477 192.033 34.4244 192.291 32.7609C192.461 31.6321 192.97 30.6496 193.546 29.674C194.565 27.9714 195.923 26.6093 197.496 25.4685C198.012 25.0983 198.586 24.8164 199.194 24.6342C199.264 24.6228 199.331 24.5961 199.389 24.5559C199.768 24.1728 200.228 24.1439 200.702 24.1881ZM196.54 29.8817C196.636 29.8718 196.726 29.8326 196.799 29.7694C198.014 28.9181 198.975 27.7841 200.067 26.7949C200.145 26.7251 200.204 26.6382 200.124 26.5361C200.109 26.5162 200.088 26.5001 200.065 26.4891C200.043 26.4781 200.017 26.4723 199.992 26.4723C199.967 26.4723 199.941 26.4781 199.919 26.4891C199.896 26.5001 199.875 26.5162 199.86 26.5361C199.68 26.7234 199.435 26.8153 199.238 26.9685C198.219 27.7586 197.246 28.6014 196.472 29.6468C196.428 29.7064 196.382 29.7711 196.424 29.8358C196.448 29.8664 196.519 29.8732 196.54 29.8817Z" fill="black"/>
<path d="M106.534 35.1004C106.469 34.6202 106.704 34.2116 106.826 33.774C106.904 33.5033 107.111 33.1304 106.879 32.9499C106.709 32.8205 106.425 33.144 106.199 33.2905C105.265 33.8813 104.367 34.5317 103.362 35.005C102.769 35.2911 102.115 35.4273 101.458 35.4017C101.121 35.3957 100.798 35.2642 100.553 35.0329C100.307 34.8017 100.156 34.4871 100.128 34.1503C100.03 33.362 100.118 32.5839 100.201 31.8041C100.216 31.6911 100.224 31.5774 100.227 31.4635C100.227 31.3477 100.213 31.2269 100.077 31.1843C99.9415 31.1417 99.8906 31.2252 99.8159 31.2933C99.5204 31.5589 99.2266 31.8262 98.9294 32.0901C97.6269 33.2479 96.2429 34.3291 95.0457 35.5873C94.1847 36.4931 93.2524 36.5255 92.2267 36.2803C91.78 36.173 91.4914 35.7235 91.3623 35.2587C91.1279 34.3938 91.308 33.5561 91.5763 32.7371C91.9363 31.6457 92.5069 30.6224 92.8278 29.5293C93.1284 28.5077 93.6939 27.6241 94.1201 26.6757C94.3681 26.1206 94.6704 25.4668 95.2749 25.1127C95.4503 24.9947 95.6478 24.9137 95.8554 24.8748C96.063 24.8358 96.2763 24.8397 96.4823 24.8862C97.0359 25.0429 97.3314 25.8516 97.0733 26.4288C96.7218 27.2189 96.3108 27.9816 95.9797 28.7785C95.7402 29.354 95.4345 29.8937 95.1713 30.4556C94.9081 31.0174 94.5124 31.5759 94.2696 32.1871C94.1577 32.5409 94.0121 32.883 93.8349 33.2087C93.7784 33.2852 93.7527 33.3801 93.7628 33.4747C93.7729 33.5693 93.818 33.6567 93.8892 33.7195C94.059 33.8557 94.1592 33.6344 94.273 33.5612C95.0837 33.0397 95.8343 32.4298 96.5112 31.7428C97.2737 30.9578 98.0837 30.2104 98.7783 29.3591C99.5934 28.363 100.463 27.4095 101.129 26.2943C101.314 25.9898 101.561 25.7277 101.854 25.5247C102.005 25.4197 102.19 25.3744 102.373 25.3973C102.556 25.4202 102.724 25.5098 102.845 25.649C103.275 26.1871 103.302 26.9805 103.032 27.6088C102.402 29.0883 101.971 30.6207 102.103 32.257C102.158 32.938 102.711 33.2479 103.329 32.9601C104.562 32.3881 105.771 31.7683 106.967 31.1247C107.68 30.7365 107.94 30.1917 108.251 29.5515C108.562 28.9113 108.573 28.1706 108.855 27.5253C109.217 26.6995 109.365 25.7937 109.854 25.0139C110.124 24.59 111.129 24.5185 111.645 24.6887C112.002 24.8079 112.284 25.3613 112.219 25.7818C112.17 26.1053 111.868 26.3318 111.88 26.6842C111.88 26.8204 111.759 26.9907 111.892 27.0877C112.024 27.1848 112.165 27.0367 112.298 26.9566C113.281 26.3421 114.36 25.8967 115.49 25.6388C116.294 25.4771 117.111 25.3831 117.93 25.3579C118.073 25.3527 118.215 25.3595 118.357 25.3783C118.527 25.4004 118.729 25.3783 118.776 25.5945C118.807 25.6987 118.804 25.8101 118.767 25.9123C118.73 26.0146 118.662 26.1025 118.572 26.1632C118.129 26.4373 117.757 26.7847 117.205 26.9498C116.513 27.1864 115.839 27.4709 115.186 27.8012C114.403 28.1621 113.658 28.5946 112.88 28.9572C112.425 29.1868 112.021 29.5059 111.691 29.8954C111.146 30.5083 110.474 31.0123 110.076 31.7513C109.827 32.2119 109.646 32.707 109.541 33.2206C109.369 34.0407 109.08 34.8315 108.682 35.5686C108.598 35.742 108.474 35.8929 108.32 36.0089C108.166 36.1249 107.987 36.2027 107.797 36.236C107.608 36.2692 107.413 36.2569 107.229 36.2001C107.045 36.1433 106.877 36.0435 106.739 35.9091C106.478 35.6469 106.571 35.3609 106.534 35.1004Z" fill="black"/>
<path d="M171.08 42.6141C170.981 43.176 171.095 43.7855 170.91 44.3678C170.884 44.4478 170.852 44.5483 170.934 44.6062C171.015 44.6641 171.088 44.5704 171.161 44.5364C171.55 44.3661 171.788 44.0103 172.082 43.7259C173.049 42.7912 174.007 41.853 175.291 41.3422C175.992 41.0647 176.774 41.4308 176.745 42.0556C176.706 42.4956 176.568 42.9211 176.342 43.3003C175.921 44.0784 175.687 44.9263 175.396 45.7521C175.349 45.8883 175.257 46.0739 175.396 46.1947C175.465 46.2342 175.542 46.2549 175.621 46.2549C175.7 46.2549 175.778 46.2342 175.846 46.1947C176.614 45.907 177.351 45.546 178.103 45.231C178.742 44.962 178.963 44.567 179.037 43.9115C179.107 43.3071 179.234 42.706 179.251 42.0965C179.261 41.7798 179.458 41.7117 179.688 41.6078C180.094 41.4223 180.367 41.6742 180.666 41.8547C180.965 42.0352 180.902 42.3161 180.851 42.5903C180.837 42.6635 180.729 42.7605 180.834 42.8048C180.907 42.8422 180.978 42.7469 181.041 42.6856C181.615 42.1254 182.13 41.4938 182.874 41.1294C183.159 40.9754 183.456 40.8439 183.762 40.7361C183.935 40.6923 184.117 40.6951 184.289 40.7441C184.461 40.7931 184.617 40.8867 184.742 41.0153C184.891 41.1509 184.996 41.3289 185.042 41.5256C185.089 41.7223 185.074 41.9285 185.001 42.1169C184.482 43.3939 183.87 44.6334 182.964 45.6703C182.502 46.1947 181.982 46.7328 181.184 46.8145C180.944 46.8383 180.707 46.9286 180.584 46.6851C180.476 46.4689 180.635 46.2594 180.82 46.1539C181.529 45.7469 182.009 45.0999 182.536 44.5176C183.09 43.9296 183.497 43.2184 183.724 42.4421C183.765 42.2974 183.84 42.1016 183.668 42.0165C183.497 41.9313 183.356 42.0267 183.21 42.1391C182.249 42.884 181.367 43.7249 180.576 44.6487C180.44 44.7747 180.345 44.9392 180.304 45.1204C180.195 45.9138 179.854 46.6391 179.637 47.4002C179.307 48.5546 178.847 49.6647 178.536 50.8276C178.197 52.1166 177.749 53.3743 177.196 54.587C177.044 54.9276 176.965 55.2817 176.765 55.6086C176.556 55.9157 176.261 56.153 175.916 56.2897C175.576 56.4463 175.21 56.2233 175.12 55.8214C174.97 55.1404 175.143 54.4832 175.23 53.8243C175.519 51.6415 176.398 49.6732 177.516 47.8037C177.806 47.3185 178.137 46.8571 178.453 46.3871C178.518 46.2901 178.623 46.1743 178.502 46.0875C178.382 46.0006 178.348 46.1658 178.268 46.2135C177.336 46.7668 176.359 47.2351 175.259 47.2555C174.629 47.2674 174.017 46.8826 174.07 46.0943C174.123 45.306 174.473 44.63 174.724 43.9149C174.856 43.5403 175.016 43.176 175.159 42.8048C175.187 42.7127 175.209 42.6188 175.225 42.5239C175.115 42.5238 175.009 42.5672 174.931 42.6447C174.017 43.3525 173.152 44.1216 172.341 44.9467C171.896 45.403 171.453 45.8627 171.007 46.3173C170.844 46.4884 170.627 46.5975 170.393 46.6261C170.158 46.6546 169.922 46.6009 169.723 46.474C169.647 46.4334 169.584 46.3727 169.54 46.2985C169.496 46.2244 169.474 46.1396 169.475 46.0534C169.496 45.2159 169.616 44.3839 169.831 43.5744C169.897 43.3133 169.93 43.0451 169.93 42.7758C169.93 42.4047 169.803 42.3383 169.49 42.5511C169.249 42.7023 169.028 42.883 168.831 43.0891C168.152 43.8809 167.303 44.5193 166.624 45.3196C166.284 45.7163 165.983 46.1283 165.516 46.4042C165.275 46.5455 165.241 46.8877 165.131 47.1465C164.961 47.5722 164.681 47.7016 164.253 47.5637C163.793 47.4155 163.686 47.2061 163.801 46.7226C164.066 45.6073 164.504 44.5483 164.837 43.4535C164.865 43.3583 164.888 43.2617 164.905 43.164C165.022 42.5375 165.02 42.5409 164.343 42.5545C163.638 42.5698 162.984 42.8474 162.305 42.9819C162.249 42.9942 162.198 43.026 162.163 43.0718C162.128 43.1175 162.109 43.1743 162.111 43.2322C162.037 44.4359 161.3 45.2753 160.536 46.1011C159.883 46.8043 159.107 47.1976 158.131 47.1533C157.941 47.1482 157.754 47.1024 157.582 47.019C157.411 46.9355 157.26 46.8164 157.138 46.6695C157.017 46.5227 156.928 46.3515 156.878 46.1674C156.827 45.9834 156.817 45.7907 156.847 45.6022C156.847 45.5477 156.896 45.4898 156.837 45.449C156.799 45.4289 156.756 45.4204 156.714 45.4247C156.671 45.4289 156.631 45.4457 156.597 45.4728C155.512 46.0875 154.329 46.4689 153.181 46.9405C152.443 47.2364 151.647 47.3531 150.856 47.281C150.272 47.2402 149.813 46.5438 149.947 45.9342C150.141 45.054 150.696 44.4019 151.328 43.8383C151.853 43.3667 152.333 42.8508 152.856 42.3808C153.239 42.0241 153.667 41.7185 154.128 41.4716C154.558 41.2537 155.005 41.3354 155.188 41.6879C155.426 42.1476 155.276 42.5766 154.806 42.8286C153.909 43.3071 152.997 43.7685 152.301 44.5313C151.961 44.8973 151.622 45.2498 151.464 45.7452C151.421 45.8832 151.328 46.004 151.426 46.1437C151.525 46.2833 151.683 46.2628 151.819 46.2322C152.592 46.0632 153.351 45.8314 154.088 45.5392C154.965 45.1987 155.823 44.7867 156.737 44.5296C156.832 44.51 156.921 44.4643 156.992 44.3976C157.063 44.3309 157.115 44.2458 157.141 44.1516C157.492 43.113 158.194 42.2974 158.888 41.4818C159.18 41.1413 159.52 40.9881 159.979 41.2299C160.25 41.3712 160.593 41.2809 160.885 41.4154C161.076 41.5023 161.284 41.538 161.408 41.7458C161.495 41.8922 161.633 41.8752 161.811 41.8496C162.933 41.6896 164.052 41.4512 165.197 41.5619C165.352 41.5666 165.506 41.5394 165.65 41.4818C166.17 41.3235 166.518 41.5755 166.511 42.105C166.511 42.769 166.252 43.3786 166.07 44.0017C166.038 44.1124 165.946 44.2554 166.033 44.3133C166.16 44.3985 166.257 44.2384 166.337 44.155C166.802 43.6612 167.242 43.1436 167.724 42.6669C168.369 42.0284 169.049 41.4274 169.932 41.1107C170.051 41.0725 170.177 41.0615 170.301 41.0786C170.425 41.0958 170.544 41.1405 170.648 41.2095C170.753 41.2786 170.841 41.3703 170.905 41.4778C170.97 41.5853 171.01 41.7059 171.022 41.8309C171.039 42.0812 171.059 42.3281 171.08 42.6141ZM160.782 42.6601C160.806 42.4285 160.758 42.2225 160.522 42.1833C160.255 42.1391 159.958 41.8854 159.731 42.3281C159.467 42.8388 159.104 43.3071 158.819 43.811C158.467 44.4092 158.236 45.0711 158.139 45.7589C158.09 46.1471 158.185 46.1862 158.538 46.0262C158.915 45.8294 159.253 45.5651 159.535 45.2464C160.243 44.5279 160.553 43.6135 160.782 42.6601ZM176.222 54.221C176.295 54.1021 176.362 53.9793 176.422 53.8532C176.979 52.4629 177.456 51.0417 177.85 49.5966C177.91 49.3838 178.105 49.1761 177.981 48.9156C177.77 49.0756 177.709 49.3242 177.597 49.5455C177.222 50.2947 177.076 51.1256 176.748 51.8918C176.459 52.5728 176.436 53.322 176.176 54.0098C176.154 54.044 176.147 54.0853 176.155 54.1249C176.164 54.1644 176.188 54.199 176.222 54.221Z" fill="black"/>
<path d="M70.877 32.9686C70.928 32.5055 70.9823 32.0373 71.0265 31.5691C71.0384 31.4312 71.0604 31.2643 70.9042 31.1877C70.748 31.1111 70.6444 31.2456 70.5442 31.3443C69.8072 32.0731 68.97 32.6928 68.2194 33.4028C67.2412 34.3256 66.1815 35.1531 65.2441 36.127C64.8943 36.4948 64.339 36.3671 63.8669 36.3978C63.7102 36.3902 63.5545 36.3685 63.4016 36.3331C63.101 36.2951 62.8197 36.1644 62.5964 35.9591C62.3731 35.7539 62.2189 35.4841 62.1551 35.1872C61.9429 34.3035 62.1449 33.4675 62.3997 32.6332C62.6391 31.8483 62.9686 31.0923 63.2708 30.3364C63.6241 29.451 63.816 28.4805 64.4358 27.7058C64.5524 27.5434 64.6355 27.3593 64.6803 27.1644C64.8502 26.5531 65.3868 26.1428 65.5736 25.54C65.6517 25.2846 65.9523 25.1621 66.1798 25.0293C66.8761 24.6155 67.3974 24.733 67.8407 25.3698C67.9486 25.5156 68.0123 25.6896 68.024 25.8708C68.0358 26.052 67.9951 26.2328 67.9069 26.3914C67.3108 27.4453 66.9457 28.6048 66.4125 29.6792C66.1763 30.1477 65.9138 30.6025 65.6262 31.0413C65.3223 31.5129 65.2153 32.0628 64.947 32.5549C64.814 32.8057 64.7004 33.0664 64.6073 33.3347C64.5812 33.3946 64.5749 33.4612 64.5893 33.5249C64.6036 33.5886 64.6379 33.6461 64.6871 33.6889C64.8366 33.8166 64.93 33.665 65.0166 33.602C66.3921 32.5941 67.6861 31.5027 68.7526 30.144C69.3266 29.4067 70.0364 28.7819 70.6478 28.0685C71.1363 27.5136 71.5676 26.9107 71.935 26.2688C72.1265 25.9323 72.4052 25.654 72.7416 25.4634C73.2205 25.1825 73.9575 25.7222 73.9915 26.3897C74.041 26.8424 73.9634 27.3 73.7674 27.7109C73.4413 28.3426 73.4447 29.1003 73.2086 29.7643C72.9437 30.5134 72.9166 31.2643 72.9149 32.0305C72.9149 32.9193 73.4243 33.253 74.2174 32.9039C75.3853 32.4213 76.513 31.8463 77.59 31.1843C78.2223 30.8045 78.9057 30.5178 79.6193 30.333C79.8214 30.2734 80.0133 30.1746 80.212 30.0963C80.3648 30.0367 80.5244 30.0027 80.6348 30.1644C80.6785 30.2318 80.6971 30.3125 80.6871 30.3923C80.6772 30.4721 80.6394 30.5457 80.5805 30.6003C80.0939 31.1792 79.5211 31.6795 78.8823 32.0833C78.0332 32.6179 77.196 33.173 76.3537 33.7144C75.3467 34.3631 74.3651 35.1003 73.1424 35.3285C72.4224 35.4613 71.721 35.4988 71.1895 34.833C71.0786 34.7043 71.0016 34.5497 70.9653 34.3835C70.8776 33.9174 70.8479 33.4421 70.877 32.9686Z" fill="black"/>
<path d="M91.848 25.225C91.8573 25.388 91.8209 25.5503 91.7428 25.6935C91.6648 25.8368 91.5483 25.9553 91.4065 26.0355C90.6304 26.4986 90.087 27.2427 89.3364 27.7194C88.3701 28.334 87.5329 29.119 86.5836 29.754C86.5599 29.7694 86.5378 29.7881 86.5157 29.8051C85.417 30.5543 85.3575 30.7348 86.0691 31.8261C86.7484 32.8665 87.1797 34.0311 87.7961 35.1003C88.0373 35.5175 88.3192 35.9108 88.5926 36.3092C88.8252 36.6497 88.8066 37.0447 88.8405 37.4227C88.8384 37.524 88.8045 37.622 88.7435 37.7027C88.6825 37.7835 88.5976 37.8428 88.5009 37.8722C88.2716 37.9676 88.0101 38.0118 87.8216 37.8126C87.2496 37.2597 86.7098 36.6741 86.2049 36.0589C85.918 35.6826 85.5257 35.4289 85.2591 35.0288C84.7734 34.2967 84.213 33.6139 83.695 32.9005C83.5065 32.6417 83.3129 32.6826 83.1193 32.8545C82.1633 33.7059 81.2157 34.5572 80.2596 35.4085C79.655 35.9448 79.0131 36.4386 78.4646 37.0362C77.9161 37.6338 77.3845 38.1583 76.9753 38.8291C76.851 39.0204 76.6834 39.1797 76.4862 39.2939C76.2315 39.4523 75.9462 39.5221 75.6847 39.3212C75.4231 39.1202 75.4384 38.8529 75.4877 38.5754C75.5709 38.1174 75.9275 37.8194 76.167 37.4517C77.2623 35.7388 78.7142 34.329 80.0881 32.8545C80.623 32.2825 81.2462 31.8091 81.7608 31.2166C82.2176 30.6922 82.2974 30.4606 81.8831 29.8868C81.5094 29.3761 81.3736 28.7563 81.0458 28.2217C80.5631 27.3901 80.1397 26.5253 79.779 25.6337C79.5684 25.1348 79.509 24.5406 79.7654 24.0928C80.1645 23.393 80.8319 23.3385 81.3498 24.1319C81.8457 24.8913 82.3993 25.6149 82.8646 26.393C83.2875 27.0979 83.7137 27.8028 84.1196 28.5162C84.3335 28.8925 84.4507 28.9129 84.7988 28.6269C85.9723 27.6428 87.1271 26.6348 88.2886 25.6388C88.879 25.0946 89.5462 24.6408 90.2687 24.292C90.948 23.9889 91.8531 24.5184 91.848 25.225Z" fill="black"/>
</svg>
